<svg xmlns="http://www.w3.org/2000/svg" width="32" height="32" viewBox="0 0 32 32">
  <g id="Grupo_14187" data-name="Grupo 14187" transform="translate(-1195.001 -399.999)">
    <path id="Trazado_14314" data-name="Trazado 14314" d="M-1394.367,5640.025a4.043,4.043,0,0,0-1.15-3.136c3.773-.413,7.731-1.85,7.731-8.355a6.535,6.535,0,0,0-1.74-4.542,6.086,6.086,0,0,0-.169-4.482s-1.419-.455-4.651,1.737a16.061,16.061,0,0,0-8.478,0c-3.233-2.191-4.656-1.737-4.656-1.737a6.084,6.084,0,0,0-.166,4.482,6.547,6.547,0,0,0-1.744,4.542c0,6.488,3.953,7.942,7.712,8.368a3.619,3.619,0,0,0-1.075,2.264l-.032.018a3.606,3.606,0,0,1-4.9-1.425,3.557,3.557,0,0,0-2.593-1.745s-1.659-.022-.118,1.029a4.483,4.483,0,0,1,1.88,2.477s.993,3.293,5.7,2.268c.008,1.415.022,2.479.022,2.88a.986.986,0,0,1-.009.134,16.016,16.016,0,0,0,4.211.56,16.025,16.025,0,0,0,4.2-.558,1.011,1.011,0,0,1-.009-.135C-1394.388,5644.116-1394.367,5642.289-1394.367,5640.025Z" transform="translate(2609.584 -5213.363)" fill="#fff"/>
    <path id="Trazado_14315" data-name="Trazado 14315" d="M-1455.632,5503.218a16,16,0,0,0-16-16,16,16,0,0,0-16,16,16.007,16.007,0,0,0,11.788,15.44.984.984,0,0,0,.009-.134c0-.4-.014-1.466-.023-2.88-4.71,1.024-5.7-2.268-5.7-2.268a4.482,4.482,0,0,0-1.88-2.478c-1.541-1.051.119-1.029.119-1.029a3.555,3.555,0,0,1,2.593,1.745,3.605,3.605,0,0,0,4.9,1.425l.032-.018a3.621,3.621,0,0,1,1.075-2.264c-3.76-.427-7.712-1.88-7.712-8.368a6.545,6.545,0,0,1,1.743-4.542,6.083,6.083,0,0,1,.166-4.481s1.422-.455,4.656,1.736a16.061,16.061,0,0,1,8.478,0c3.232-2.191,4.651-1.736,4.651-1.736a6.085,6.085,0,0,1,.169,4.481,6.534,6.534,0,0,1,1.74,4.542c0,6.505-3.959,7.941-7.731,8.355a4.044,4.044,0,0,1,1.15,3.136c0,2.264-.021,4.09-.021,4.645a1.032,1.032,0,0,0,.009.135,16.2,16.2,0,0,0,10.279-8.633A15.6,15.6,0,0,0-1455.632,5503.218Z" transform="translate(2682.633 -5087.219)"/>
  </g>
</svg>
