<svg xmlns="http://www.w3.org/2000/svg" width="32" height="32" viewBox="0 0 32 32">
  <g id="Grupo_14185" data-name="Grupo 14185" transform="translate(-1115 -400)">
    <circle id="Elipse_1586" data-name="Elipse 1586" cx="16" cy="16" r="16" transform="translate(1115 400)"/>
    <path id="Trazado_13999" data-name="Trazado 13999" d="M36.3,75.742V70.6H38v6.849H22.6V70.6h1.707v5.142Z" transform="translate(1100.4 347.745)" fill="#fff"/>
    <path id="Trazado_14000" data-name="Trazado 14000" d="M38.177,26.758l8.378,1.751.355-1.684-8.378-1.751Zm1.108-3.99,7.758,3.613.709-1.552-7.758-3.635-.709,1.574Zm2.15-3.812,6.583,5.475L49.1,23.123l-6.583-5.475ZM45.691,14.9l-1.374,1.02,5.1,6.871,1.374-1.02ZM38,30.659h8.555V28.952H38Z" transform="translate(1088.414 391.1)" fill="#fff"/>
  </g>
</svg>
