<svg xmlns="http://www.w3.org/2000/svg" width="357" height="273" viewBox="0 0 357 273" fill="none"><path d="M346.549 53H28.4507C22.6789 53 18 57.9608 18 64.0802V246.92C18 253.039 22.6789 258 28.4507 258H346.549C352.321 258 357 253.039 357 246.92V64.0802C357 57.9608 352.321 53 346.549 53Z" fill="#024E8B"></path><path d="M332.805 35H13.1948C8.66893 35 5 38.8767 5 43.6588V231.341C5 236.123 8.66893 240 13.1948 240H332.805C337.331 240 341 236.123 341 231.341V43.6588C341 38.8767 337.331 35 332.805 35Z" fill="white"></path><path d="M146.135 98.3519H77.9531" stroke="black" stroke-width="3.37331"></path><path d="M108.9 143.933V106.695" stroke="black" stroke-width="3.37331"></path><path d="M341.012 97.1439H181.15" stroke="black" stroke-width="3.37331"></path><path d="M63.5057 111.384C71.0418 111.384 77.151 105.275 77.151 97.7385C77.151 90.2024 71.0418 84.0931 63.5057 84.0931C55.9696 84.0931 49.8604 90.2024 49.8604 97.7385C49.8604 105.275 55.9696 111.384 63.5057 111.384Z" stroke="black" stroke-width="3.37331"></path><path d="M178.983 84.7084H145.905C142.875 84.7084 140.419 87.1644 140.419 90.1942V104.162C140.419 107.192 142.875 109.648 145.905 109.648H178.983C182.013 109.648 184.469 107.192 184.469 104.162V90.1942C184.469 87.1644 182.013 84.7084 178.983 84.7084Z" fill="#D6D6D6" stroke="black" stroke-width="3.37331"></path><path d="M243.886 84.7084H210.808C207.778 84.7084 205.322 87.1644 205.322 90.1942V104.162C205.322 107.192 207.778 109.648 210.808 109.648H243.886C246.916 109.648 249.372 107.192 249.372 104.162V90.1942C249.372 87.1644 246.916 84.7084 243.886 84.7084Z" fill="#D6D6D6" stroke="black" stroke-width="3.37331"></path><path d="M305.757 84.7084H272.679C269.649 84.7084 267.193 87.1644 267.193 90.1942V104.162C267.193 107.192 269.649 109.648 272.679 109.648H305.757C308.787 109.648 311.243 107.192 311.243 104.162V90.1942C311.243 87.1644 308.787 84.7084 305.757 84.7084Z" fill="#D6D6D6" stroke="black" stroke-width="3.37331"></path><path d="M110.253 108.673C109.332 109.591 107.843 109.591 106.926 108.673L98.2698 100.015C97.3489 99.0972 97.3489 97.6087 98.2698 96.6906L106.926 88.0327C107.843 87.1146 109.332 87.1146 110.253 88.0327L118.909 96.6906C119.826 97.6087 119.826 99.0972 118.909 100.015L110.253 108.673Z" fill="#D6D6D6" stroke="black" stroke-width="3.37331"></path><path d="M341.013 156.737H193.375" stroke="black" stroke-width="3.37331"></path><path d="M236.64 155.24V199.685C236.64 203.828 236.213 207.186 240.703 207.186H280.26" stroke="black" stroke-width="3.37331"></path><path d="M195.887 156.37H134.925" stroke="black" stroke-width="3.37331"></path><path d="M197.966 168.892C197.489 169.368 196.718 169.368 196.242 168.892L184.595 157.245C184.119 156.769 184.119 155.997 184.595 155.521L196.242 143.875C196.718 143.399 197.489 143.399 197.966 143.875L209.612 155.521C210.088 155.997 210.088 156.769 209.612 157.245L197.966 168.892Z" fill="#D6D6D6" stroke="black" stroke-width="3.37331"></path><path d="M127.881 142.509H90.6402C87.4233 142.509 84.8154 145.117 84.8154 148.334V164.435C84.8154 167.652 87.4233 170.26 90.6402 170.26H127.881C131.098 170.26 133.706 167.652 133.706 164.435V148.334C133.706 145.117 131.098 142.509 127.881 142.509Z" fill="#D6D6D6" stroke="black" stroke-width="3.37331"></path><path d="M301.032 193.665H263.792C260.575 193.665 257.967 196.273 257.967 199.49V215.591C257.967 218.808 260.575 221.416 263.792 221.416H301.032C304.249 221.416 306.857 218.808 306.857 215.591V199.49C306.857 196.273 304.249 193.665 301.032 193.665Z" fill="#D6D6D6" stroke="black" stroke-width="3.37331"></path><path d="M14.9051 34.6931H331.905C337.1 34.6931 341.318 38.9142 341.318 44.1135V74.5326H5.49219V44.1135C5.49219 38.9143 9.70997 34.6931 14.9052 34.6931H14.9051Z" fill="#F5F5F5" stroke="#C9CBCB" stroke-width="0.55888" stroke-miterlimit="10"></path><path d="M333.15 34.8067C337.671 34.8067 341.336 38.6151 341.336 43.3129V227.687C341.336 232.385 337.671 236.193 333.15 236.193H13.8504C9.32903 236.193 5.66364 232.385 5.66364 227.687V43.3128C5.66364 38.615 9.32903 34.8066 13.8504 34.8066H333.15M333.15 31H13.8504C7.31611 31 2 36.5235 2 43.3128V227.687C2 234.476 7.31611 240 13.8504 240H333.15C339.684 240 345 234.476 345 227.687V43.3128C345 36.5235 339.684 31 333.15 31Z" fill="black"></path><path d="M33.6145 61.902C37.2304 61.902 40.1616 58.9685 40.1616 55.3497C40.1616 51.731 37.2304 48.7975 33.6145 48.7975C29.9986 48.7975 27.0674 51.731 27.0674 55.3497C27.0674 58.9685 29.9986 61.902 33.6145 61.902Z" fill="#FC5D0D"></path><path d="M52.5667 61.902C56.1825 61.902 59.1138 58.9685 59.1138 55.3497C59.1138 51.731 56.1825 48.7975 52.5667 48.7975C48.9508 48.7975 46.0195 51.731 46.0195 55.3497C46.0195 58.9685 48.9508 61.902 52.5667 61.902Z" fill="#C629CD"></path><path d="M71.5198 61.902C75.1357 61.902 78.0669 58.9685 78.0669 55.3497C78.0669 51.731 75.1357 48.7975 71.5198 48.7975C67.9039 48.7975 64.9727 51.731 64.9727 55.3497C64.9727 58.9685 67.9039 61.902 71.5198 61.902Z" fill="#BABBBB"></path><rect x="28" y="132" width="183.909" height="56.733" rx="28.3665" fill="black"></rect><path d="M178.248 150.136L224.906 181.023L201.143 185.986H201.095C199.89 186.323 198.733 186.95 197.866 187.865L197.817 187.913L181.67 205.983L178.248 150.136Z" fill="#FC5D0D"></path><path d="M179.886 152.931L221.242 180.3L200.902 184.541H200.709C199.215 184.926 197.913 185.697 196.805 186.805L196.756 186.853L196.708 186.902L182.923 202.417L179.886 152.931M177.669 148.209C177.187 148.209 176.705 148.643 176.753 149.173L180.32 207.332C180.368 207.862 180.802 208.199 181.236 208.199C181.477 208.199 181.67 208.103 181.863 207.91L198.877 188.877C199.6 188.155 200.516 187.624 201.48 187.384L226.496 182.18C227.267 181.987 227.412 180.975 226.785 180.541L178.151 148.354C178.007 148.257 177.862 148.209 177.669 148.209Z" fill="black"></path><path d="M89.335 153.162H83.665V170.052H79.105V153.162H73.435V149.112H89.335V153.162ZM97.0145 162.372V170.052H92.4545V149.112H102.385C106.255 149.112 108.715 151.812 108.715 155.802C108.715 158.622 107.455 160.872 104.905 161.832L109.015 170.052H103.945L100.285 162.372H97.0145ZM97.0145 158.532H101.815C103.165 158.532 104.005 157.812 104.005 156.462V155.142C104.005 153.792 103.165 153.072 101.815 153.072H97.0145V158.532ZM121.819 170.052H111.859V166.422H114.559V152.742H111.859V149.112H121.819V152.742H119.119V166.422H121.819V170.052ZM143.259 170.052H138.519L137.019 165.072H130.029L128.529 170.052H123.909L130.809 149.112H136.449L143.259 170.052ZM135.909 161.202L133.569 153.252H133.419L131.109 161.202H135.909ZM158.696 170.052H146.156V149.112H150.716V166.002H158.696V170.052Z" fill="white"></path></svg>